<?xml version="1.0" encoding="UTF-8"?>
<svg version="1.1" xmlns="http://www.w3.org/2000/svg" width="408" height="250">
<path d="M0 0 C7.74468085 0.74468085 7.74468085 0.74468085 11 4 C11 4.66 11 5.32 11 6 C12.5159375 5.2575 12.5159375 5.2575 14.0625 4.5 C21.21036383 1.78918223 29.85444407 2.19268146 37.26953125 3.63671875 C41.20524893 4.16035501 42.83832818 2.21989724 46 0 C48.875 -0.25 48.875 -0.25 51 0 C50.505 0.78375 50.01 1.5675 49.5 2.375 C47.83462035 4.78552327 47.83462035 4.78552327 48 7 C47.34 7 46.68 7 46 7 C46.54269531 7.64066406 47.08539063 8.28132813 47.64453125 8.94140625 C54.63337096 17.39097642 57.6978419 23.3499034 57.40234375 34.49609375 C56.40949877 43.14252045 52.01439114 48.9656684 45.375 54.37109375 C37.17159507 59.99744219 27.90970627 59.92861659 18.296875 58.63671875 C10.24176916 56.77492542 3.84103401 51.54711887 -0.515625 44.57421875 C-4.30326825 36.21206269 -4.12419578 27.51868875 -0.9296875 19 C0.40833808 16.12155842 2.18759112 13.59778606 4 11 C4.76939681 8.77397385 4.76939681 8.77397385 5 7 C4.34 7 3.68 7 3 7 C0 2.61538462 0 2.61538462 0 0 Z M24 31 C23.401875 31.639375 22.80375 32.27875 22.1875 32.9375 C19.99151472 35.00800041 18.91896611 35.58300484 16 36 C16.30630976 38.83336529 16.62394159 40.56126519 18.5 42.75 C22.23377815 44.61688908 25.83860323 45.1193232 30 45 C34.17352262 43.33059095 36.46255952 40.6651918 39 37 C39 36.34 39 35.68 39 35 C38.0925 35.061875 37.185 35.12375 36.25 35.1875 C32.71017358 34.98327924 31.55068845 34.35448165 29 32 C28.67 32.99 28.34 33.98 28 35 C27.01 35.33 26.02 35.66 25 36 C25 34.35 25 32.7 25 31 C24.67 31 24.34 31 24 31 Z " fill="#E35645" transform="translate(100,83)"/>
<path d="M0 0 C4.54390672 -0.59269906 9.1223522 -0.47199696 13.70068359 -0.44604492 C15.96417148 -0.43763315 18.2250495 -0.4661111 20.48828125 -0.49804688 C29.26139963 -0.54163602 37.97535343 -0.38181833 44.92358398 5.67749023 C48.96931865 9.87360066 50.95487743 14.31928739 51.02734375 20.23046875 C50.62157847 26.44179886 48.45048906 30.17251263 44.375 34.875 C43 36 43 36 41 36 C41.721875 36.96421875 42.44375 37.9284375 43.1875 38.921875 C44.12549722 40.19755122 45.06296999 41.47361317 46 42.75 C46.47695313 43.38421875 46.95390625 44.0184375 47.4453125 44.671875 C47.89648438 45.290625 48.34765625 45.909375 48.8125 46.546875 C49.44091797 47.39523926 49.44091797 47.39523926 50.08203125 48.26074219 C51 50 51 50 51 54 C37.69263585 55.56951775 37.69263585 55.56951775 32 54 C28.64730252 51.34092853 27.29404129 47.81639146 25.66796875 43.94140625 C25.11753906 42.97074219 24.56710937 42.00007813 24 41 C22.02 40.67 20.04 40.34 18 40 C18 44.62 18 49.24 18 54 C12.06 54 6.12 54 0 54 C-2 47 -2 47 -1 45 C-0.9009466 42.28687135 -0.86017594 39.60000046 -0.8671875 36.88671875 C-0.86623077 36.08015335 -0.86527405 35.27358795 -0.86428833 34.44258118 C-0.86360714 32.73361127 -0.86545718 31.02463878 -0.86962891 29.31567383 C-0.87495721 26.70843628 -0.86969268 24.10137265 -0.86328125 21.49414062 C-0.86394245 19.83333295 -0.86522448 18.17252539 -0.8671875 16.51171875 C-0.86516327 15.73446945 -0.86313904 14.95722015 -0.86105347 14.15641785 C-0.87437093 11.05563956 -0.95775986 8.1897224 -1.63330078 5.15551758 C-2 3 -2 3 0 0 Z M18 14 C18 18.29 18 22.58 18 27 C24.14950742 27.29585677 24.14950742 27.29585677 30.0625 25.9375 C32.35208333 24.03541667 32.35208333 24.03541667 32.5 20.5 C32.28539845 17.1432883 32.28539845 17.1432883 30.82421875 15.29296875 C28.26373483 13.47815038 26.41377104 13.70304338 23.3125 13.8125 C21.559375 13.874375 19.80625 13.93625 18 14 Z " fill="#E75846" transform="translate(328,87)"/>
<path d="M0 0 C5.61 0 11.22 0 17 0 C17.94148531 2.82445592 18.07311695 4.14171618 17.87890625 7.01171875 C17.81425171 8.03591919 17.81425171 8.03591919 17.74829102 9.08081055 C17.68697998 9.94101807 17.62566895 10.80122559 17.5625 11.6875 C17.376875 14.430625 17.19125 17.17375 17 20 C22.94 20 28.88 20 35 20 C34.505 18.02 34.505 18.02 34 16 C33.90681264 13.62646314 33.870041 11.25036029 33.875 8.875 C33.87242188 7.63492188 33.86984375 6.39484375 33.8671875 5.1171875 C34 2 34 2 35 0 C40.61 0 46.22 0 52 0 C54.16576344 7.58017204 54.16576344 7.58017204 53.29736328 12.90383911 C52.77155567 16.61034028 52.8980939 20.32245052 52.9375 24.05859375 C52.94128662 24.8883522 52.94507324 25.71811066 52.94897461 26.57301331 C52.96108746 29.19456446 52.97973999 31.81599996 53 34.4375 C53.0265028 37.91536116 53.04649928 41.39317031 53.0625 44.87109375 C53.07079834 45.67203964 53.07909668 46.47298553 53.08764648 47.29820251 C53.0961903 49.19900701 53.0533991 51.09992651 53 53 C52 54 52 54 48.18359375 54.09765625 C46.60152953 54.09191138 45.01948969 54.07889593 43.4375 54.0625 C39.2609375 54.0315625 39.2609375 54.0315625 35 54 C35 47.4 35 40.8 35 34 C29.39 34 23.78 34 18 34 C18.03946711 39.4596452 18.03946711 39.4596452 18.09008789 44.91918945 C18.09258545 45.60198975 18.09508301 46.28479004 18.09765625 46.98828125 C18.10551147 48.03302612 18.10551147 48.03302612 18.11352539 49.09887695 C18 51 18 51 17 54 C11.39 54 5.78 54 0 54 C-1.12528645 46.12299487 -1.12528645 46.12299487 -1.12939453 42.21386719 C-1.13254669 41.34316589 -1.13569885 40.4724646 -1.13894653 39.57537842 C-1.1369223 38.65847229 -1.13489807 37.74156616 -1.1328125 36.796875 C-1.13376923 35.83726868 -1.13472595 34.87766235 -1.13571167 33.88897705 C-1.13638915 31.87194757 -1.13456516 29.85491586 -1.13037109 27.83789062 C-1.12499312 24.7460444 -1.13034281 21.65434188 -1.13671875 18.5625 C-1.13605835 16.59895801 -1.13477799 14.63541611 -1.1328125 12.671875 C-1.13483673 11.74687195 -1.13686096 10.8218689 -1.13894653 9.86883545 C-1.13579437 9.0107428 -1.13264221 8.15265015 -1.12939453 7.26855469 C-1.12820114 6.13773468 -1.12820114 6.13773468 -1.12698364 4.98406982 C-1 3 -1 3 0 0 Z " fill="#EF5B49" transform="translate(38,87)"/>
<path d="M0 0 C6.31345458 4.65145116 10.96430847 9.26627469 13 17 C13.95267676 26.44922417 13.42893582 34.37132713 7.45703125 41.9609375 C1.51448767 48.4066255 -5.25212884 51.53498655 -13.9453125 52.23828125 C-22.97175501 52.44897217 -30.32469998 51.08370852 -37.9375 46.0625 C-44.52163307 39.47836693 -47.12420384 33.49499118 -47.5625 24.25 C-47.40377149 16.86912424 -45.28628228 11.00637386 -41 5 C-38.1680158 2.46113518 -35.35183095 0.4755439 -31.9375 -1.1875 C-31.28652344 -1.51105469 -30.63554687 -1.83460937 -29.96484375 -2.16796875 C-20.54978328 -6.15486314 -8.71570863 -5.18108849 0 0 Z M-27.8125 15.6875 C-29.68281217 19.32968686 -30.1204572 22.92571239 -30 27 C-28.5081215 31.16155582 -26.62500219 34.42434055 -23 37 C-18.77146158 38.15828632 -15.29319311 38.51727724 -11.1875 36.875 C-7.18926528 33.44794167 -4.88735899 30.83982363 -4.0625 25.5625 C-3.68487958 20.14994058 -5.56733476 17.03879284 -8.625 12.6875 C-15.78184352 7.60237434 -21.87941825 10.1635963 -27.8125 15.6875 Z " fill="#D75242" transform="translate(208,90)"/>
<path d="M0 0 C7.21875 -0.04125 14.4375 -0.0825 21.875 -0.125 C24.15390137 -0.14320801 26.43280273 -0.16141602 28.78076172 -0.18017578 C30.58040125 -0.18601518 32.3800434 -0.19111204 34.1796875 -0.1953125 C35.11949463 -0.20554443 36.05930176 -0.21577637 37.02758789 -0.22631836 C37.9206665 -0.22656006 38.81374512 -0.22680176 39.73388672 -0.22705078 C40.51110077 -0.231492 41.28831482 -0.23593323 42.08908081 -0.24050903 C44 0 44 0 46 2 C46.01171875 4.09375 46.01171875 4.09375 45.6875 6.5 C45.58824219 7.2940625 45.48898437 8.088125 45.38671875 8.90625 C45 11 45 11 44 13 C35.09 13 26.18 13 17 13 C17 15.31 17 17.62 17 20 C17.69150146 19.99476318 18.38300293 19.98952637 19.09545898 19.98413086 C22.20946352 19.963425 25.32345361 19.95036037 28.4375 19.9375 C29.52611328 19.92912109 30.61472656 19.92074219 31.73632812 19.91210938 C32.77080078 19.90888672 33.80527344 19.90566406 34.87109375 19.90234375 C35.82943115 19.89710693 36.78776855 19.89187012 37.77514648 19.88647461 C40 20 40 20 41 21 C41.07244053 23.01964199 41.08377188 25.04167124 41.0625 27.0625 C41.05347656 28.16722656 41.04445313 29.27195312 41.03515625 30.41015625 C41.02355469 31.26480469 41.01195312 32.11945313 41 33 C36.04515817 34.38489368 31.25410852 33.89120615 26.1875 33.5625 C25.30384766 33.51029297 24.42019531 33.45808594 23.50976562 33.40429688 C21.33949592 33.27525381 19.16969307 33.13840044 17 33 C17.33 35.31 17.66 37.62 18 40 C18.78238037 39.99476318 19.56476074 39.98952637 20.37084961 39.98413086 C23.89305833 39.96342894 27.4152543 39.95036162 30.9375 39.9375 C32.16919922 39.92912109 33.40089844 39.92074219 34.66992188 39.91210938 C35.83974609 39.90888672 37.00957031 39.90566406 38.21484375 39.90234375 C39.84087524 39.89448853 39.84087524 39.89448853 41.49975586 39.88647461 C44 40 44 40 45 41 C45.26082134 42.99383425 45.45957503 44.99599467 45.625 47 C45.72039062 48.093125 45.81578125 49.18625 45.9140625 50.3125 C45.94242187 51.199375 45.97078125 52.08625 46 53 C45 54 45 54 43.17137146 54.12025452 C42.37417191 54.11803391 41.57697235 54.11581329 40.75561523 54.11352539 C39.84211304 54.11340454 38.92861084 54.11328369 37.98742676 54.11315918 C37.02091187 54.10804321 36.05439697 54.10292725 35.05859375 54.09765625 C34.17498169 54.09664917 33.29136963 54.09564209 32.38098145 54.09460449 C29.06647451 54.08935531 25.75198601 54.07539417 22.4375 54.0625 C15.033125 54.041875 7.62875 54.02125 0 54 C0 36.18 0 18.36 0 0 Z " fill="#ED5A48" transform="translate(276,87)"/>
<path d="M0 0 C16.5 0 33 0 50 0 C50.94043148 4.70215739 51.15775038 8.26748847 51 13 C50 14 50 14 46.40234375 14.09765625 C44.91403133 14.0909822 43.42573568 14.07902183 41.9375 14.0625 C40.79958008 14.05573242 40.79958008 14.05573242 39.63867188 14.04882812 C37.75908129 14.0370068 35.87953101 14.01907078 34 14 C34.00523682 15.14065918 34.01047363 16.28131836 34.01586914 17.45654297 C34.03393869 21.67951679 34.04543919 25.90248718 34.05493164 30.12548828 C34.05996737 31.95492121 34.06679627 33.78435009 34.07543945 35.61376953 C34.08753824 38.23991898 34.09323583 40.86601532 34.09765625 43.4921875 C34.10281754 44.31306854 34.10797882 45.13394958 34.11329651 45.97970581 C34.11387171 51.77225659 34.11387171 51.77225659 33 54 C30.18743719 54.02684312 27.37512759 54.04676188 24.5625 54.0625 C23.76005859 54.07087891 22.95761719 54.07925781 22.13085938 54.08789062 C20.08704779 54.0965143 18.04316098 54.0522815 16 54 C15 53 15 53 14.88647461 49.30639648 C14.88663376 47.66128708 14.89233012 46.01617269 14.90234375 44.37109375 C14.9037587 43.50686295 14.90517365 42.64263214 14.90663147 41.75221252 C14.91224761 38.98060708 14.92480281 36.2090812 14.9375 33.4375 C14.94251292 31.5631522 14.94707619 29.68880315 14.95117188 27.81445312 C14.96222228 23.20960456 14.9794977 18.60481579 15 14 C13.39318359 14.01740234 13.39318359 14.01740234 11.75390625 14.03515625 C10.35677257 14.04453299 8.95963701 14.05363331 7.5625 14.0625 C6.85544922 14.07087891 6.14839844 14.07925781 5.41992188 14.08789062 C3.61306441 14.09653588 1.80612397 14.05220011 0 14 C-0.33 13.67 -0.66 13.34 -1 13 C-0.67 8.71 -0.34 4.42 0 0 Z " fill="#EE5A49" transform="translate(222,87)"/>
<path d="M0 0 C5.61 0 11.22 0 17 0 C17.94148531 2.82445592 18.07311695 4.14171618 17.87890625 7.01171875 C17.81425171 8.03591919 17.81425171 8.03591919 17.74829102 9.08081055 C17.68697998 9.94101807 17.62566895 10.80122559 17.5625 11.6875 C17.376875 14.430625 17.19125 17.17375 17 20 C22.94 20 28.88 20 35 20 C34.505 18.02 34.505 18.02 34 16 C33.90681264 13.62646314 33.870041 11.25036029 33.875 8.875 C33.87242188 7.63492188 33.86984375 6.39484375 33.8671875 5.1171875 C34 2 34 2 35 0 C40.61 0 46.22 0 52 0 C54.16576344 7.58017204 54.16576344 7.58017204 53.29736328 12.90383911 C52.77155567 16.61034028 52.8980939 20.32245052 52.9375 24.05859375 C52.94128662 24.8883522 52.94507324 25.71811066 52.94897461 26.57301331 C52.96108746 29.19456446 52.97973999 31.81599996 53 34.4375 C53.0265028 37.91536116 53.04649928 41.39317031 53.0625 44.87109375 C53.07079834 45.67203964 53.07909668 46.47298553 53.08764648 47.29820251 C53.0961903 49.19900701 53.0533991 51.09992651 53 53 C52 54 52 54 48.18359375 54.09765625 C46.60152953 54.09191138 45.01948969 54.07889593 43.4375 54.0625 C39.2609375 54.0315625 39.2609375 54.0315625 35 54 C35 47.4 35 40.8 35 34 C29.39 34 23.78 34 18 34 C18.03946711 39.4596452 18.03946711 39.4596452 18.09008789 44.91918945 C18.09258545 45.60198975 18.09508301 46.28479004 18.09765625 46.98828125 C18.10551147 48.03302612 18.10551147 48.03302612 18.11352539 49.09887695 C18 51 18 51 17 54 C11.39 54 5.78 54 0 54 C-1.12528645 46.12299487 -1.12528645 46.12299487 -1.12939453 42.21386719 C-1.13254669 41.34316589 -1.13569885 40.4724646 -1.13894653 39.57537842 C-1.1369223 38.65847229 -1.13489807 37.74156616 -1.1328125 36.796875 C-1.13376923 35.83726868 -1.13472595 34.87766235 -1.13571167 33.88897705 C-1.13638915 31.87194757 -1.13456516 29.85491586 -1.13037109 27.83789062 C-1.12499312 24.7460444 -1.13034281 21.65434188 -1.13671875 18.5625 C-1.13605835 16.59895801 -1.13477799 14.63541611 -1.1328125 12.671875 C-1.13483673 11.74687195 -1.13686096 10.8218689 -1.13894653 9.86883545 C-1.13579437 9.0107428 -1.13264221 8.15265015 -1.12939453 7.26855469 C-1.12820114 6.13773468 -1.12820114 6.13773468 -1.12698364 4.98406982 C-1 3 -1 3 0 0 Z M1 1 C1 18.16 1 35.32 1 53 C5.95 53 10.9 53 16 53 C16 46.4 16 39.8 16 33 C22.6 33 29.2 33 36 33 C36 39.6 36 46.2 36 53 C40.95 53 45.9 53 51 53 C51 35.84 51 18.68 51 1 C46.05 1 41.1 1 36 1 C36 7.6 36 14.2 36 21 C29.4 21 22.8 21 16 21 C16 14.4 16 7.8 16 1 C11.05 1 6.1 1 1 1 Z " fill="#3E1612" transform="translate(38,87)"/>
<path d="M0 0 C7.21875 -0.04125 14.4375 -0.0825 21.875 -0.125 C24.15390137 -0.14320801 26.43280273 -0.16141602 28.78076172 -0.18017578 C30.58040125 -0.18601518 32.3800434 -0.19111204 34.1796875 -0.1953125 C35.11949463 -0.20554443 36.05930176 -0.21577637 37.02758789 -0.22631836 C37.9206665 -0.22656006 38.81374512 -0.22680176 39.73388672 -0.22705078 C40.51110077 -0.231492 41.28831482 -0.23593323 42.08908081 -0.24050903 C44 0 44 0 46 2 C46.01171875 4.09375 46.01171875 4.09375 45.6875 6.5 C45.58824219 7.2940625 45.48898437 8.088125 45.38671875 8.90625 C45 11 45 11 44 13 C35.09 13 26.18 13 17 13 C17 15.31 17 17.62 17 20 C17.69150146 19.99476318 18.38300293 19.98952637 19.09545898 19.98413086 C22.20946352 19.963425 25.32345361 19.95036037 28.4375 19.9375 C29.52611328 19.92912109 30.61472656 19.92074219 31.73632812 19.91210938 C32.77080078 19.90888672 33.80527344 19.90566406 34.87109375 19.90234375 C35.82943115 19.89710693 36.78776855 19.89187012 37.77514648 19.88647461 C40 20 40 20 41 21 C41.07244053 23.01964199 41.08377188 25.04167124 41.0625 27.0625 C41.05347656 28.16722656 41.04445313 29.27195312 41.03515625 30.41015625 C41.02355469 31.26480469 41.01195312 32.11945313 41 33 C36.04515817 34.38489368 31.25410852 33.89120615 26.1875 33.5625 C25.30384766 33.51029297 24.42019531 33.45808594 23.50976562 33.40429688 C21.33949592 33.27525381 19.16969307 33.13840044 17 33 C17.33 35.31 17.66 37.62 18 40 C18.78238037 39.99476318 19.56476074 39.98952637 20.37084961 39.98413086 C23.89305833 39.96342894 27.4152543 39.95036162 30.9375 39.9375 C32.16919922 39.92912109 33.40089844 39.92074219 34.66992188 39.91210938 C35.83974609 39.90888672 37.00957031 39.90566406 38.21484375 39.90234375 C39.84087524 39.89448853 39.84087524 39.89448853 41.49975586 39.88647461 C44 40 44 40 45 41 C45.26082134 42.99383425 45.45957503 44.99599467 45.625 47 C45.72039062 48.093125 45.81578125 49.18625 45.9140625 50.3125 C45.94242187 51.199375 45.97078125 52.08625 46 53 C45 54 45 54 43.17137146 54.12025452 C42.37417191 54.11803391 41.57697235 54.11581329 40.75561523 54.11352539 C39.84211304 54.11340454 38.92861084 54.11328369 37.98742676 54.11315918 C37.02091187 54.10804321 36.05439697 54.10292725 35.05859375 54.09765625 C34.17498169 54.09664917 33.29136963 54.09564209 32.38098145 54.09460449 C29.06647451 54.08935531 25.75198601 54.07539417 22.4375 54.0625 C15.033125 54.041875 7.62875 54.02125 0 54 C0 36.18 0 18.36 0 0 Z M1 1 C1 18.16 1 35.32 1 53 C15.19 53 29.38 53 44 53 C44 49.37 44 45.74 44 42 C34.76 42 25.52 42 16 42 C16 38.7 16 35.4 16 32 C23.59 32 31.18 32 39 32 C39 28.37 39 24.74 39 21 C31.41 21 23.82 21 16 21 C16 18.03 16 15.06 16 12 C24.91 12 33.82 12 43 12 C43 8.37 43 4.74 43 1 C29.14 1 15.28 1 1 1 Z " fill="#4C1917" transform="translate(276,87)"/>
<path d="M0 0 C16.5 0 33 0 50 0 C50.94043148 4.70215739 51.15775038 8.26748847 51 13 C50 14 50 14 46.40234375 14.09765625 C44.91403133 14.0909822 43.42573568 14.07902183 41.9375 14.0625 C40.79958008 14.05573242 40.79958008 14.05573242 39.63867188 14.04882812 C37.75908129 14.0370068 35.87953101 14.01907078 34 14 C34.00523682 15.14065918 34.01047363 16.28131836 34.01586914 17.45654297 C34.03393869 21.67951679 34.04543919 25.90248718 34.05493164 30.12548828 C34.05996737 31.95492121 34.06679627 33.78435009 34.07543945 35.61376953 C34.08753824 38.23991898 34.09323583 40.86601532 34.09765625 43.4921875 C34.10281754 44.31306854 34.10797882 45.13394958 34.11329651 45.97970581 C34.11387171 51.77225659 34.11387171 51.77225659 33 54 C30.18743719 54.02684312 27.37512759 54.04676188 24.5625 54.0625 C23.76005859 54.07087891 22.95761719 54.07925781 22.13085938 54.08789062 C20.08704779 54.0965143 18.04316098 54.0522815 16 54 C15 53 15 53 14.88647461 49.30639648 C14.88663376 47.66128708 14.89233012 46.01617269 14.90234375 44.37109375 C14.9037587 43.50686295 14.90517365 42.64263214 14.90663147 41.75221252 C14.91224761 38.98060708 14.92480281 36.2090812 14.9375 33.4375 C14.94251292 31.5631522 14.94707619 29.68880315 14.95117188 27.81445312 C14.96222228 23.20960456 14.9794977 18.60481579 15 14 C13.39318359 14.01740234 13.39318359 14.01740234 11.75390625 14.03515625 C10.35677257 14.04453299 8.95963701 14.05363331 7.5625 14.0625 C6.85544922 14.07087891 6.14839844 14.07925781 5.41992188 14.08789062 C3.61306441 14.09653588 1.80612397 14.05220011 0 14 C-0.33 13.67 -0.66 13.34 -1 13 C-0.67 8.71 -0.34 4.42 0 0 Z M1 1 C1 4.96 1 8.92 1 13 C6.28 13 11.56 13 17 13 C17 26.2 17 39.4 17 53 C21.95 53 26.9 53 32 53 C32 39.8 32 26.6 32 13 C37.28 13 42.56 13 48 13 C48 9.04 48 5.08 48 1 C32.49 1 16.98 1 1 1 Z " fill="#30100E" transform="translate(222,87)"/>
<path d="M0 0 C3.5625 0.25 3.5625 0.25 6.5625 2.25 C7.65718197 6.96189195 7.5920824 11.51481046 5.09765625 15.71875 C1.87544028 19.47913735 -0.44682413 21.96826966 -5.59375 22.453125 C-6.3671875 22.46859375 -7.140625 22.4840625 -7.9375 22.5 C-8.7109375 22.52578125 -9.484375 22.5515625 -10.28125 22.578125 C-12.92580838 22.1756922 -13.76990802 21.28104151 -15.4375 19.25 C-14.70144531 19.35699219 -13.96539062 19.46398437 -13.20703125 19.57421875 C-7.26537192 20.37468472 -7.26537192 20.37468472 -1.5 19.1875 C1.03738101 16.80389966 2.77597473 14.22754212 4.5625 11.25 C3.634375 11.45625 2.70625 11.6625 1.75 11.875 C-1.4375 12.25 -1.4375 12.25 -4.4375 10.25 C-5.0975 10.91 -5.7575 11.57 -6.4375 12.25 C-7.4275 11.92 -8.4175 11.59 -9.4375 11.25 C-8.7775 11.25 -8.1175 11.25 -7.4375 11.25 C-7.31632812 10.62351562 -7.19515625 9.99703125 -7.0703125 9.3515625 C-6.90273437 8.53429687 -6.73515625 7.71703125 -6.5625 6.875 C-6.40007812 6.06289062 -6.23765625 5.25078125 -6.0703125 4.4140625 C-4.96907991 0.64811895 -3.87770926 0.28201522 0 0 Z " fill="#6E251E" transform="translate(134.4375,106.75)"/>
<path d="M0 0 C2.51912634 -0.29229762 4.78909246 -0.39633058 7.30859375 -0.36328125 C8.3923806 -0.36402901 8.3923806 -0.36402901 9.49806213 -0.36479187 C11.02713773 -0.36245013 12.55621708 -0.35271558 14.08520508 -0.33618164 C16.42499324 -0.31262591 18.76363934 -0.31561475 21.10351562 -0.32226562 C22.58854846 -0.31668758 24.07357649 -0.3095769 25.55859375 -0.30078125 C26.2586705 -0.30169266 26.95874725 -0.30260406 27.68003845 -0.30354309 C31.33614965 -0.25025571 32.8725964 -0.08493574 36 2 C24.45 1.67 12.9 1.34 1 1 C1 18.16 1 35.32 1 53 C5.95 53 10.9 53 16 53 C16 48.38 16 43.76 16 39 C18.64 39 21.28 39 24 39 C24 39.33 24 39.66 24 40 C22.02 40 20.04 40 18 40 C18 44.62 18 49.24 18 54 C12.06 54 6.12 54 0 54 C-2 47 -2 47 -1 45 C-0.9009466 42.28687135 -0.86017594 39.60000046 -0.8671875 36.88671875 C-0.86623077 36.08015335 -0.86527405 35.27358795 -0.86428833 34.44258118 C-0.86360714 32.73361127 -0.86545718 31.02463878 -0.86962891 29.31567383 C-0.87495721 26.70843628 -0.86969268 24.10137265 -0.86328125 21.49414062 C-0.86394245 19.83333295 -0.86522448 18.17252539 -0.8671875 16.51171875 C-0.86516327 15.73446945 -0.86313904 14.95722015 -0.86105347 14.15641785 C-0.87437093 11.05563956 -0.95775986 8.1897224 -1.63330078 5.15551758 C-2 3 -2 3 0 0 Z " fill="#341210" transform="translate(328,87)"/>
<path d="M0 0 C5.61 0 11.22 0 17 0 C19.16690772 7.58417701 19.16690772 7.58417701 18.29959106 12.90161133 C17.76883047 16.61915219 17.87785293 20.34553219 17.90234375 24.09375 C17.90446617 25.34194519 17.90446617 25.34194519 17.90663147 26.61535645 C17.91217833 29.2436093 17.92472055 31.87177338 17.9375 34.5 C17.94252188 36.29426959 17.94708358 38.08854054 17.95117188 39.8828125 C17.96213028 44.25524195 17.97935752 48.62760598 18 53 C17.01 53.495 17.01 53.495 16 54 C16 36.51 16 19.02 16 1 C11.05 1 6.1 1 1 1 C1 7.27 1 13.54 1 20 C-1.14719904 15.70560192 -1.24163442 13.5896158 -1.1875 8.875 C-1.18105469 7.63492188 -1.17460938 6.39484375 -1.16796875 5.1171875 C-1 2 -1 2 0 0 Z " fill="#230C0A" transform="translate(73,87)"/>
<path d="M0 0 C4.93446488 0.43539396 7.47991362 2.63296086 11 6 C14.64003924 10.39315081 15.13555338 15.44231146 15 21 C13.90692302 26.62153876 11.46386813 30.33733897 7 34 C6.34 34 5.68 34 5 34 C5.721875 34.96421875 6.44375 35.9284375 7.1875 36.921875 C8.12549722 38.19755122 9.06296999 39.47361317 10 40.75 C10.47695313 41.38421875 10.95390625 42.0184375 11.4453125 42.671875 C11.89648438 43.290625 12.34765625 43.909375 12.8125 44.546875 C13.44091797 45.39523926 13.44091797 45.39523926 14.08203125 46.26074219 C15 48 15 48 15 52 C-2.13559158 53.5269339 -2.13559158 53.5269339 -6.6328125 49.84375 C-8.19522295 47.21708896 -9.31640538 44.97851943 -10 42 C-9.67 41.34 -9.34 40.68 -9 40 C-7.9944239 41.45449401 -6.99569565 42.91372443 -6 44.375 C-5.443125 45.18710938 -4.88625 45.99921875 -4.3125 46.8359375 C-3 49 -3 49 -3 51 C2.28 51 7.56 51 13 51 C12.0925 49.494375 11.185 47.98875 10.25 46.4375 C7.77876591 42.32072852 5.36256426 38.17992139 3 34 C4.49739583 32.86067708 5.99479167 31.72135417 7.4921875 30.58203125 C11.86648182 25.99242193 11.42285547 20.05661474 11.30859375 14.1015625 C10.89940982 9.98900506 9.92466927 7.92466927 7 5 C4.71792746 3.45092721 2.47907386 2.23953693 0 1 C0 0.67 0 0.34 0 0 Z " fill="#2C100D" transform="translate(364,89)"/>
<path d="M0 0 C2.07107049 1.42832448 2.82566512 2.67312211 4 4.875 C4 7 4 7 1.8125 9.75 C-1 12 -1 12 -5 12 C-4.67 13.65 -4.34 15.3 -4 17 C-6.61940964 14.49447774 -7.95696227 13.14652509 -8.09765625 9.3984375 C-8.08605469 8.40070313 -8.07445313 7.40296875 -8.0625 6.375 C-8.05347656 5.37210937 -8.04445313 4.36921875 -8.03515625 3.3359375 C-8.02355469 2.56507812 -8.01195313 1.79421875 -8 1 C-5.20129973 -0.39935013 -3.09501208 -0.25265405 0 0 Z " fill="#571B17" transform="translate(121,107)"/>
<path d="M0 0 C-0.7425 1.175625 -0.7425 1.175625 -1.5 2.375 C-3.16537965 4.78552327 -3.16537965 4.78552327 -3 7 C-3.66 7 -4.32 7 -5 7 C-4.45730469 7.64066406 -3.91460937 8.28132813 -3.35546875 8.94140625 C3.71168407 17.48565767 6.57490764 23.36391433 6.37109375 34.59765625 C5.86582713 39.23015338 4.49475855 42.10193977 2 46 C1 44 1 44 1.55859375 42.15234375 C1.84863281 41.42144531 2.13867188 40.69054687 2.4375 39.9375 C5.12234413 32.15642394 4.62339751 25.92544913 1.35546875 18.375 C-0.80253306 14.59383257 -3.70071436 11.7988322 -7 9 C-6.34 7.02 -5.68 5.04 -5 3 C-5.66 2.34 -6.32 1.68 -7 1 C-4.53721199 -0.231394 -2.7204945 -0.07159196 0 0 Z " fill="#1E0806" transform="translate(151,83)"/>
<path d="M0 0 C1.670625 0.061875 1.670625 0.061875 3.375 0.125 C4.035 1.445 4.695 2.765 5.375 4.125 C4.776875 3.939375 4.17875 3.75375 3.5625 3.5625 C1.21091238 2.90406313 1.21091238 2.90406313 -1.625 4.125 C-3.37598126 6.75147188 -5.01231308 9.41275382 -6.625 12.125 C-7.615 11.795 -8.605 11.465 -9.625 11.125 C-8.965 11.125 -8.305 11.125 -7.625 11.125 C-7.50382812 10.49851562 -7.38265625 9.87203125 -7.2578125 9.2265625 C-7.00644531 8.00066406 -7.00644531 8.00066406 -6.75 6.75 C-6.58757812 5.93789062 -6.42515625 5.12578125 -6.2578125 4.2890625 C-5.11805873 0.39138603 -4.02462638 0.13878022 0 0 Z " fill="#491713" transform="translate(134.625,106.875)"/>
<path d="M0 0 C-0.7425 1.175625 -0.7425 1.175625 -1.5 2.375 C-3.16537965 4.78552327 -3.16537965 4.78552327 -3 7 C-3.66 7 -4.32 7 -5 7 C-3.35 8.98 -1.7 10.96 0 13 C-0.33 13.66 -0.66 14.32 -1 15 C-2.98 13.02 -4.96 11.04 -7 9 C-6.34 7.02 -5.68 5.04 -5 3 C-5.66 2.34 -6.32 1.68 -7 1 C-4.53721199 -0.231394 -2.7204945 -0.07159196 0 0 Z " fill="#4E1A16" transform="translate(151,83)"/>
<path d="M0 0 C1.485 0.99 1.485 0.99 3 2 C2.88590407 3.45922693 2.75834456 4.91740598 2.625 6.375 C2.55539062 7.18710938 2.48578125 7.99921875 2.4140625 8.8359375 C2 11 2 11 0 13 C0 8.71 0 4.42 0 0 Z " fill="#0E0403" transform="translate(319,87)"/>
<path d="M0 0 C1.32 0 2.64 0 4 0 C4.33 1.32 4.66 2.64 5 4 C3.125 5.0625 3.125 5.0625 1 6 C0.34 5.67 -0.32 5.34 -1 5 C-0.67 3.35 -0.34 1.7 0 0 Z " fill="#E45543" transform="translate(116,110)"/>
<path d="M0 0 C-1.5830577 4.2742558 -4.50568404 6.26531794 -8 9 C-8 5.06368636 -6.57142871 3.87394974 -4 1 C-2 0 -2 0 0 0 Z " fill="#91322A" transform="translate(174,91)"/>
<path d="M0 0 C6.41868512 -0.3633218 6.41868512 -0.3633218 9 1.25 C10 3 10 3 9.6875 5.1875 C9.3471875 6.0846875 9.3471875 6.0846875 9 7 C8.34 5.35 7.68 3.7 7 2 C5.02 2.66 3.04 3.32 1 4 C0.67 2.68 0.34 1.36 0 0 Z " fill="#792721" transform="translate(113,108)"/>
<path d="M0 0 C1.65 0.33 3.3 0.66 5 1 C4.67 2.32 4.34 3.64 4 5 C2.35 4.67 0.7 4.34 -1 4 C-0.67 2.68 -0.34 1.36 0 0 Z " fill="#E75745" transform="translate(133,110)"/>
<path d="M0 0 C3.465 1.485 3.465 1.485 7 3 C5.68 3.33 4.36 3.66 3 4 C3.33 5.65 3.66 7.3 4 9 C1.47740939 7.02579865 1.0070192 6.03254358 0.3125 2.8125 C0.209375 1.884375 0.10625 0.95625 0 0 Z " fill="#1B0807" transform="translate(113,115)"/>
<path d="M0 0 C0.33 0 0.66 0 1 0 C1 3.63 1 7.26 1 11 C0.34 10.67 -0.32 10.34 -1 10 C-1.86159454 6.76902047 -2.30597523 4.77513726 -1.0625 1.625 C-0.5365625 0.820625 -0.5365625 0.820625 0 0 Z " fill="#040101" transform="translate(328,130)"/>
<path d="M0 0 C0.33 0 0.66 0 1 0 C1 3.63 1 7.26 1 11 C-0.96713413 8.04929881 -1.65358161 6.46418389 -2 3 C-1.34 2.01 -0.68 1.02 0 0 Z " fill="#070201" transform="translate(328,87)"/>
<path d="M0 0 C1.32 0.33 2.64 0.66 4 1 C3.67 2.98 3.34 4.96 3 7 C2.34 7 1.68 7 1 7 C0.67 4.69 0.34 2.38 0 0 Z " fill="#A43A2E" transform="translate(124,111)"/>
<path d="M0 0 C0.99 0.33 1.98 0.66 3 1 C2.01 2.98 1.02 4.96 0 7 C-0.33 6.01 -0.66 5.02 -1 4 C-1.66 3.67 -2.32 3.34 -3 3 C-2.01 2.01 -1.02 1.02 0 0 Z " fill="#DB4F42" transform="translate(144,85)"/>
</svg>
